<svg width="200" height="111" viewBox="0 0 200 111" fill="none" xmlns="http://www.w3.org/2000/svg">
<path d="M133.997 77.7991L134 60.9684H162.407C162.407 60.9684 163.224 60.9189 163.847 61.1739C164.225 61.3274 164.483 61.5399 164.596 62.0358C164.721 62.5696 164.501 62.9639 163.97 63.3701C163.307 63.8802 162.3 64.3336 162.3 64.3336L133.997 77.7991Z" fill="white"/>
<path d="M197.992 62C195.581 77.4161 184.959 89.0279 168.062 89.0893H151L197.992 62Z" fill="#222222"/>
<path d="M134.001 54.8799L134.014 10.8017L154.93 0.88559L154.977 29.7507C158.69 26.3666 165.437 24.0688 170.998 24.0688C189.494 24.0688 198.963 40.0258 199.112 54.8964L199.114 55.6568C197.52 54.7004 195.199 54.8799 195.199 54.8799H134.001Z" fill="#2C6EBF"/>
<path d="M67.1263 57.893L67.1123 43.0908L108.98 43.8985C109.24 43.8985 109.467 43.9741 109.467 44.1535C109.467 44.307 109.384 44.3873 109.176 44.4582L108.94 44.5314L68.4654 57.1232C68.4654 57.1232 67.3153 57.4041 67.1263 57.893Z" fill="white"/>
<path d="M78.1373 60.5174H139.958L140.345 60.5455C138.321 76.63 127.524 88.9005 110.087 88.9005C105.13 88.9005 100.282 87.6915 96.2716 85.6345L96.2951 99.3433L76.0448 108.959L76 60C76.4959 60.5833 78.1373 60.5174 78.1373 60.5174Z" fill="#222222"/>
<path d="M131.819 54.8957L103.02 54.879C103.02 54.879 101.596 54.9498 101.256 54.1587C100.857 53.2259 101.684 52.6898 101.684 52.6898L102.206 52.4419L129.76 43.2082C131.09 46.9654 131.777 50.9612 131.819 54.879L131.819 54.8957Z" fill="#2C6EBF"/>
<path d="M67.1096 39.5525L67.0956 24.0655C67.0956 24.0655 100.622 23.9238 103.704 24.0679C115.698 24.0679 123.898 30.7794 128.219 39.5525H67.1096Z" fill="#2C6EBF"/>
<path d="M64.7275 63.7404H21.2019C22.6944 69.8969 27.6277 74.5113 34.4762 74.5113C38.9041 74.5113 42.0803 72.9268 44.3498 68.7822H64.2104C60.9207 83.5301 47.8685 90.2274 34.5919 90.2274C15.2981 90.2274 0.88562 78.5307 0.88562 56.9651C0.88562 51.347 1.85148 46.3311 3.63208 42L62.6045 43.1312C64.0025 47.0561 64.7134 51.1368 64.9731 56.3771C65.207 61.0954 64.7275 63.7404 64.7275 63.7404Z" fill="#222222"/>
<path d="M4.69873 39.5525C9.94136 29.2657 20.2141 23.4516 33.1152 23.4516C46.5193 23.4516 56.1756 29.353 61.1561 39.5525H4.69873Z" fill="#2C6EBF"/>
<path fill-rule="evenodd" clip-rule="evenodd" d="M193.804 84.9019V83.929H194.725C195.133 83.929 195.572 83.929 195.572 84.3682C195.572 84.7981 195.405 84.9114 194.935 84.902L193.804 84.9019ZM193.804 85.6836H194.422L195.362 87.4335H196.439L195.405 85.6836C196.156 85.5915 196.564 85.2774 196.564 84.491C196.564 84.0542 196.451 83.5818 196.064 83.3433C195.749 83.1544 195.28 83.1426 194.913 83.1426H192.864V87.4335H193.804V85.6836ZM194.514 82.5168C196.033 82.5168 197.403 83.7188 197.403 85.4049C197.403 87.0769 196.033 88.2884 194.514 88.2884C192.977 88.2884 191.629 87.0769 191.629 85.4049C191.629 83.7188 192.977 82.5168 194.514 82.5168ZM194.514 89.3345C196.67 89.3345 198.449 87.5657 198.449 85.4049C198.449 83.2394 196.67 81.4706 194.514 81.4706C192.342 81.4706 190.582 83.2394 190.582 85.4049C190.582 87.5657 192.342 89.3345 194.514 89.3345Z" fill="white"/>
</svg>
