<svg width="200" height="111" viewBox="0 0 200 111" fill="none" xmlns="http://www.w3.org/2000/svg">
<path d="M133.997 77.7994L134 60.9687H162.407C162.407 60.9687 163.224 60.9192 163.847 61.1742C164.225 61.3277 164.482 61.5402 164.596 62.0361C164.721 62.5699 164.501 62.9642 163.97 63.3704C163.306 63.8805 162.3 64.3339 162.3 64.3339L133.997 77.7994Z" fill="#222222"/>
<path d="M198.588 62.2646C196.177 77.6808 185.555 89.2925 168.658 89.3539H151.596L198.588 62.2646Z" fill="#222222"/>
<path d="M134.001 54.88L134.014 10.8019L154.93 0.885742L154.977 29.7509C158.69 26.3668 165.437 24.069 170.998 24.069C189.494 24.069 198.963 40.0259 199.112 54.8966L199.114 55.657C197.52 54.7006 195.199 54.88 195.199 54.88H134.001Z" fill="#65AAFF"/>
<path d="M67.1263 57.893L67.1123 43.0908L108.98 43.8985C109.24 43.8985 109.467 43.974 109.467 44.1535C109.467 44.307 109.384 44.3873 109.176 44.4582L108.94 44.5314L68.4654 57.1231C68.4654 57.1231 67.3153 57.4041 67.1263 57.893Z" fill="#222222"/>
<path d="M69.2665 60.9676H131.087L131.474 60.9957C129.45 77.0802 118.653 89.3507 101.216 89.3507C96.2589 89.3507 91.4107 88.1416 87.4008 86.0847L87.4242 99.7935L67.174 109.41L67.1292 60.4502C67.6251 61.0335 69.2665 60.9676 69.2665 60.9676Z" fill="#222222"/>
<path d="M131.819 54.8955L103.02 54.8787C103.02 54.8787 101.596 54.9496 101.256 54.1585C100.857 53.2257 101.684 52.6896 101.684 52.6896L102.206 52.4416L129.76 43.208C131.09 46.9652 131.777 50.961 131.819 54.8788L131.819 54.8955Z" fill="#65AAFF"/>
<path d="M67.1095 39.5522L67.0955 24.0652C67.0955 24.0652 100.622 23.9235 103.704 24.0676C115.698 24.0676 123.898 30.7791 128.219 39.5522H67.1095Z" fill="#65AAFF"/>
<path d="M64.7274 63.6124H21.2018C22.6943 69.769 27.6276 74.3834 34.4761 74.3834C38.904 74.3834 42.0802 72.7988 44.3497 68.6543H64.2102C60.9206 83.4021 47.8684 90.0995 34.5918 90.0995C15.298 90.0995 0.885498 78.4028 0.885498 56.8372C0.885498 51.2191 1.85136 46.2031 3.63196 41.8721L62.6044 43.0032C64.0024 46.9281 64.7132 51.0089 64.973 56.2491C65.2068 60.9675 64.7274 63.6124 64.7274 63.6124Z" fill="#222222"/>
<path d="M4.69873 39.5531C9.94136 29.2663 20.2141 23.4521 33.1152 23.4521C46.5193 23.4521 56.1756 29.3536 61.1561 39.5531H4.69873Z" fill="#65AAFF"/>
<path fill-rule="evenodd" clip-rule="evenodd" d="M193.803 84.902V83.9291H194.724C195.133 83.9291 195.572 83.9291 195.572 84.3683C195.572 84.7982 195.405 84.9115 194.935 84.9021L193.803 84.902ZM193.803 85.6837H194.422L195.362 87.4336H196.439L195.405 85.6837C196.156 85.5916 196.564 85.2775 196.564 84.4911C196.564 84.0543 196.451 83.5819 196.063 83.3434C195.749 83.1545 195.279 83.1427 194.913 83.1427H192.864V87.4336H193.803V85.6837ZM194.514 82.5169C196.033 82.5169 197.402 83.7189 197.402 85.405C197.402 87.077 196.033 88.2885 194.514 88.2885C192.977 88.2885 191.628 87.077 191.628 85.405C191.628 83.7189 192.977 82.5169 194.514 82.5169ZM194.514 89.3346C196.67 89.3346 198.449 87.5658 198.449 85.405C198.449 83.2395 196.67 81.4707 194.514 81.4707C192.342 81.4707 190.582 83.2395 190.582 85.405C190.582 87.5658 192.342 89.3346 194.514 89.3346Z" fill="#222222"/>
</svg>
