<svg width="200" height="111" viewBox="0 0 200 111" fill="none" xmlns="http://www.w3.org/2000/svg">
<path d="M133.997 77.7992L134 60.9685H162.407C162.407 60.9685 163.224 60.9189 163.847 61.1739C164.225 61.3274 164.483 61.54 164.596 62.0359C164.721 62.5696 164.501 62.964 163.97 63.3702C163.307 63.8803 162.3 64.3337 162.3 64.3337L133.997 77.7992Z" fill="white"/>
<path d="M198.588 62.2649C196.177 77.681 185.555 89.2927 168.658 89.3541H151.596L198.588 62.2649Z" fill="white"/>
<path d="M134.001 54.8799L134.014 10.8017L154.93 0.88562L154.977 29.7508C158.69 26.3667 165.437 24.0689 170.998 24.0689C189.494 24.0689 198.963 40.0258 199.112 54.8964L199.114 55.6569C197.52 54.7004 195.199 54.8799 195.199 54.8799H134.001Z" fill="#2C6EBF"/>
<path d="M67.1263 57.893L67.1123 43.0908L108.98 43.8985C109.24 43.8985 109.467 43.974 109.467 44.1535C109.467 44.307 109.384 44.3873 109.176 44.4582L108.94 44.5314L68.4654 57.1231C68.4654 57.1231 67.3153 57.4041 67.1263 57.893Z" fill="white"/>
<path d="M69.2666 60.9675H131.087L131.474 60.9956C129.451 77.0801 118.654 89.3506 101.216 89.3506C96.2591 89.3506 91.4108 88.1415 87.4009 86.0846L87.4243 99.7933L67.1741 109.41L67.1293 60.4501C67.6252 61.0334 69.2666 60.9675 69.2666 60.9675Z" fill="white"/>
<path d="M131.819 54.8957L103.02 54.879C103.02 54.879 101.596 54.9498 101.256 54.1587C100.857 53.2259 101.684 52.6898 101.684 52.6898L102.206 52.4419L129.76 43.2083C131.09 46.9655 131.777 50.9612 131.819 54.879L131.819 54.8957Z" fill="#2C6EBF"/>
<path d="M67.1096 39.5526L67.0956 24.0656C67.0956 24.0656 100.622 23.9239 103.704 24.0679C115.698 24.0679 123.898 30.7795 128.219 39.5526H67.1096Z" fill="#2C6EBF"/>
<path d="M64.7275 63.6127H21.2019C22.6944 69.7692 27.6277 74.3837 34.4762 74.3837C38.9041 74.3837 42.0803 72.7991 44.3498 68.6546H64.2104C60.9207 83.4024 47.8685 90.0997 34.5919 90.0997C15.2981 90.0997 0.88562 78.403 0.88562 56.8374C0.88562 51.2193 1.85148 46.2034 3.63208 41.8723L62.6045 43.0035C64.0025 46.9284 64.7134 51.0091 64.9731 56.2494C65.207 60.9677 64.7275 63.6127 64.7275 63.6127Z" fill="white"/>
<path d="M4.69873 39.5525C9.94136 29.2657 20.2141 23.4515 33.1152 23.4515C46.5193 23.4515 56.1756 29.353 61.1561 39.5525H4.69873Z" fill="#2C6EBF"/>
<path fill-rule="evenodd" clip-rule="evenodd" d="M193.804 84.9019V83.929H194.725C195.133 83.929 195.572 83.929 195.572 84.3682C195.572 84.7981 195.405 84.9114 194.935 84.9019L193.804 84.9019ZM193.804 85.6836H194.422L195.362 87.4335H196.439L195.405 85.6836C196.156 85.5915 196.564 85.2774 196.564 84.491C196.564 84.0541 196.451 83.5818 196.064 83.3433C195.749 83.1544 195.28 83.1425 194.913 83.1425H192.864V87.4335H193.804V85.6836ZM194.514 82.5167C196.033 82.5167 197.403 83.7188 197.403 85.4049C197.403 87.0769 196.033 88.2883 194.514 88.2883C192.977 88.2883 191.629 87.0769 191.629 85.4049C191.629 83.7188 192.977 82.5167 194.514 82.5167ZM194.514 89.3345C196.67 89.3345 198.449 87.5657 198.449 85.4049C198.449 83.2394 196.67 81.4706 194.514 81.4706C192.342 81.4706 190.582 83.2394 190.582 85.4049C190.582 87.5657 192.342 89.3345 194.514 89.3345Z" fill="white"/>
</svg>
